# Blender v2.78 (sub 0) OBJ File: ''
# www.blender.org
mtllib Circle.mtl
o Circle
v 0.000000 0.000000 -1.000000
v 0.098017 0.000000 -0.995185
v 0.195090 0.000000 -0.980785
v 0.290285 0.000000 -0.956940
v 0.382683 0.000000 -0.923880
v 0.471397 0.000000 -0.881921
v 0.555570 0.000000 -0.831470
v 0.634393 0.000000 -0.773010
v 0.707107 0.000000 -0.707107
v 0.773010 0.000000 -0.634393
v 0.831470 0.000000 -0.555570
v 0.881921 0.000000 -0.471397
v 0.923880 0.000000 -0.382683
v 0.956940 0.000000 -0.290285
v 0.980785 0.000000 -0.195090
v 0.995185 0.000000 -0.098017
v 1.000000 0.000000 0.000000
v 0.995185 0.000000 0.098017
v 0.980785 0.000000 0.195091
v 0.956940 0.000000 0.290285
v 0.923879 0.000000 0.382684
v 0.881921 0.000000 0.471397
v 0.831469 0.000000 0.555571
v 0.773010 0.000000 0.634394
v 0.707106 0.000000 0.707107
v 0.634393 0.000000 0.773011
v 0.555570 0.000000 0.831470
v 0.471396 0.000000 0.881922
v 0.382683 0.000000 0.923880
v 0.290284 0.000000 0.956941
v 0.195090 0.000000 0.980785
v 0.098016 0.000000 0.995185
v -0.000001 0.000000 1.000000
v -0.098018 0.000000 0.995185
v -0.195091 0.000000 0.980785
v -0.290286 0.000000 0.956940
v -0.382684 0.000000 0.923879
v -0.471398 0.000000 0.881921
v -0.555571 0.000000 0.831469
v -0.634394 0.000000 0.773010
v -0.707108 0.000000 0.707106
v -0.773011 0.000000 0.634393
v -0.831470 0.000000 0.555570
v -0.881922 0.000000 0.471396
v -0.923880 0.000000 0.382683
v -0.956940 0.000000 0.290285
v -0.980785 0.000000 0.195090
v -0.995185 0.000000 0.098017
v -1.000000 0.000000 0.000000
v -0.995185 0.000000 -0.098016
v -0.980785 0.000000 -0.195089
v -0.956941 0.000000 -0.290284
v -0.923880 0.000000 -0.382682
v -0.881922 0.000000 -0.471395
v -0.831471 0.000000 -0.555569
v -0.773012 0.000000 -0.634392
v -0.707108 0.000000 -0.707105
v -0.634395 0.000000 -0.773009
v -0.555572 0.000000 -0.831468
v -0.471399 0.000000 -0.881920
v -0.382686 0.000000 -0.923878
v -0.290288 0.000000 -0.956939
v -0.195093 0.000000 -0.980785
v -0.098021 0.000000 -0.995184
vn 0.0000 1.0000 0.0000
usemtl None
s off
f 2//1 1//1 64//1 63//1 62//1 61//1 60//1 59//1 58//1 57//1 56//1 55//1 54//1 53//1 52//1 51//1 50//1 49//1 48//1 47//1 46//1 45//1 44//1 43//1 42//1 41//1 40//1 39//1 38//1 37//1 36//1 35//1 34//1 33//1 32//1 31//1 30//1 29//1 28//1 27//1 26//1 25//1 24//1 23//1 22//1 21//1 20//1 19//1 18//1 17//1 16//1 15//1 14//1 13//1 12//1 11//1 10//1 9//1 8//1 7//1 6//1 5//1 4//1 3//1
